<?xml version="1.0" encoding="UTF-8"?>
<svg version="1.1" xmlns="http://www.w3.org/2000/svg" width="100" height="100">
<path d="M0 0 C7.09775338 -0.22918331 14.19454541 -0.38620956 21.29516602 -0.49438477 C23.70763806 -0.53950037 26.11986598 -0.60081184 28.53149414 -0.67895508 C32.00989067 -0.78879918 35.48502268 -0.83931426 38.96484375 -0.87890625 C40.03395493 -0.92535782 41.1030661 -0.97180939 42.20457458 -1.01966858 C48.10995293 -1.02360276 51.67372339 -0.14716143 56.19726562 3.77539062 C61.0628891 9.35655201 61.17768614 14.31466736 60.87890625 21.47265625 C60.86617172 22.6363121 60.85343719 23.79996796 60.84031677 24.99888611 C60.79022718 28.68894331 60.67736839 32.37394835 60.5625 36.0625 C60.51732235 38.5747984 60.47626356 41.08717445 60.43945312 43.59960938 C60.34061595 49.73477529 60.19032621 55.86702673 60 62 C60.93585938 62.14179687 61.87171875 62.28359375 62.8359375 62.4296875 C67.97450762 63.35589891 70.22882846 64.90750699 73.25 69.1875 C75.58591405 73.7258473 76.61619812 78.05533644 75.55859375 83.109375 C73.80388809 88.44368021 71.17272926 92.116192 66.25 95.0390625 C61.48743943 97.24750793 57.6781377 97.06867435 52.58984375 96.12890625 C49.94208857 94.97475656 49.01819784 94.01598276 47.06445312 91.97973633 C42.27805892 87.82715954 37.47878225 88.14210838 31.37890625 88.1953125 C29.91511536 88.17488892 29.91511536 88.17488892 28.42175293 88.15405273 C24.80223154 88.11215004 21.1822623 88.1215645 17.5625 88.125 C9.456875 88.08375 1.35125 88.0425 -7 88 C-7 61.27 -7 34.54 -7 7 C-4.69 7 -2.38 7 0 7 C0 4.69 0 2.38 0 0 Z M3 3 C3 27.75 3 52.5 3 78 C15.54 78 28.08 78 41 78 C41.99 75.03 42.98 72.06 44 69 C48.31051785 64.3955832 50.6253706 63.82132269 57 62 C57 45.5 57 29 57 12 C53.7 12 50.4 12 47 12 C47 9.03 47 6.06 47 3 C32.48 3 17.96 3 3 3 Z M-4 10 C-4 34.75 -4 59.5 -4 85 C10.85 85 25.7 85 41 85 C41 83.68 41 82.36 41 81 C27.47 81 13.94 81 0 81 C0 57.57 0 34.14 0 10 C-1.32 10 -2.64 10 -4 10 Z M58 67 C56.74050951 68.03406673 56.74050951 68.03406673 56.90234375 70.28515625 C56.91394531 71.20167969 56.92554688 72.11820312 56.9375 73.0625 C56.958125 74.691875 56.97875 76.32125 57 78 C53.7 78 50.4 78 47 78 C47 78.99 47 79.98 47 81 C50.3 81 53.6 81 57 81 C57 84.3 57 87.6 57 91 C57.99 91 58.98 91 60 91 C60 87.7 60 84.4 60 81 C63.3 81 66.6 81 70 81 C70 80.01 70 79.02 70 78 C66.7 78 63.4 78 60 78 C60 74.7 60 71.4 60 68 C59.34 67.67 58.68 67.34 58 67 Z " fill="#000000" transform="translate(17,2)"/>
<path d="M0 0 C12.54 0 25.08 0 38 0 C38 0.66 38 1.32 38 2 C25.46 2 12.92 2 0 2 C0 1.34 0 0.68 0 0 Z " fill="#000000" transform="translate(28,60)"/>
<path d="M0 0 C12.54 0 25.08 0 38 0 C38 0.66 38 1.32 38 2 C25.46 2 12.92 2 0 2 C0 1.34 0 0.68 0 0 Z " fill="#000000" transform="translate(28,47)"/>
<path d="M0 0 C12.54 0 25.08 0 38 0 C38 0.66 38 1.32 38 2 C25.46 2 12.92 2 0 2 C0 1.34 0 0.68 0 0 Z " fill="#000000" transform="translate(28,35)"/>
<path d="M0 0 C12.54 0 25.08 0 38 0 C38 0.66 38 1.32 38 2 C25.46 2 12.92 2 0 2 C0 1.34 0 0.68 0 0 Z " fill="#000000" transform="translate(28,21)"/>
</svg>
